<svg data-v-1084b650="" xmlns="http://www.w3.org/2000/svg" viewBox="0 0 300 300"><!----> <!----> <rect data-v-1084b650="" fill="#EBF2F2" x="0" y="0" width="300px" height="300px" class="logo-background-square"></rect> <!----> <g data-v-1084b650="" id="196ea8fd-2fb9-a1c3-6f7f-2c3a40e91728" fill="#0F2020" transform="matrix(2.8,0,0,2.8,27.13600575923921,161.52620687484742)"><path d="M6.87 10.22L7.74 10.22L7.60 12.85L0.62 12.85L0.62 12.28L1.90 12.12L1.90 12.12Q1.93 11.21 1.93 10.32L1.93 10.32L1.93 10.32Q1.93 9.42 1.93 8.51L1.93 8.51L1.93 7.83L1.93 7.83Q1.93 6.90 1.93 6.00L1.93 6.00L1.93 6.00Q1.93 5.10 1.90 4.21L1.90 4.21L0.62 4.06L0.62 3.49L4.58 3.49L4.58 4.06L3.28 4.21L3.28 4.21Q3.25 5.12 3.25 6.02L3.25 6.02L3.25 6.02Q3.25 6.92 3.25 7.83L3.25 7.83L3.25 8.51L3.25 8.51Q3.25 9.44 3.25 10.35L3.25 10.35L3.25 10.35Q3.25 11.26 3.28 12.15L3.28 12.15L6.47 12.15L6.87 10.22ZM14.64 4.20L11.34 4.20L11.34 4.20Q11.31 5.08 11.31 5.96L11.31 5.96L11.31 5.96Q11.31 6.85 11.31 7.74L11.31 7.74L13.50 7.74L13.69 6.40L14.34 6.40L14.34 9.86L13.69 9.86L13.50 8.40L11.31 8.40L11.31 8.40Q11.31 9.39 11.31 10.31L11.31 10.31L11.31 10.31Q11.31 11.23 11.34 12.12L11.34 12.12L12.64 12.28L12.64 12.85L8.68 12.85L8.68 12.28L9.97 12.12L9.97 12.12Q10.00 11.24 10.00 10.34L10.00 10.34L10.00 10.34Q10.00 9.44 10.00 8.51L10.00 8.51L10.00 7.83L10.00 7.83Q10.00 6.92 10.00 6.02L10.00 6.02L10.00 6.02Q10.00 5.12 9.97 4.21L9.97 4.21L8.68 4.06L8.68 3.49L15.65 3.49L15.75 5.98L14.95 5.98L14.64 4.20ZM20.61 4.06L19.31 4.21L19.31 4.21Q19.28 5.10 19.28 6.00L19.28 6.00L19.28 6.00Q19.28 6.90 19.28 7.83L19.28 7.83L19.28 8.51L19.28 8.51Q19.28 9.42 19.28 10.32L19.28 10.32L19.28 10.32Q19.28 11.21 19.31 12.12L19.31 12.12L20.61 12.28L20.61 12.85L16.65 12.85L16.65 12.28L17.93 12.12L17.93 12.12Q17.96 11.24 17.96 10.34L17.96 10.34L17.96 10.34Q17.96 9.44 17.96 8.51L17.96 8.51L17.96 7.83L17.96 7.83Q17.96 6.92 17.96 6.02L17.96 6.02L17.96 6.02Q17.96 5.12 17.93 4.21L17.93 4.21L16.65 4.06L16.65 3.49L20.61 3.49L20.61 4.06ZM31.28 4.20L29.13 4.20L29.13 4.20Q29.11 5.10 29.11 6.00L29.11 6.00L29.11 6.00Q29.11 6.90 29.11 7.83L29.11 7.83L29.11 8.51L29.11 8.51Q29.11 9.42 29.11 10.32L29.11 10.32L29.11 10.32Q29.11 11.21 29.13 12.12L29.13 12.12L30.56 12.28L30.56 12.85L26.32 12.85L26.32 12.28L27.75 12.12L27.75 12.12Q27.78 11.24 27.78 10.34L27.78 10.34L27.78 10.34Q27.78 9.44 27.78 8.51L27.78 8.51L27.78 7.83L27.78 7.83Q27.78 6.92 27.78 6.01L27.78 6.01L27.78 6.01Q27.78 5.11 27.75 4.20L27.75 4.20L25.61 4.20L25.30 5.99L24.49 5.99L24.60 3.49L32.30 3.49L32.40 5.99L31.60 5.99L31.28 4.20ZM36.62 11.38L36.62 9.23L36.62 9.23Q36.26 9.32 35.92 9.44L35.92 9.44L35.92 9.44Q35.57 9.55 35.35 9.63L35.35 9.63L35.35 9.63Q34.89 9.81 34.62 10.00L34.62 10.00L34.62 10.00Q34.34 10.19 34.20 10.37L34.20 10.37L34.20 10.37Q34.06 10.56 34.02 10.74L34.02 10.74L34.02 10.74Q33.98 10.92 33.98 11.07L33.98 11.07L33.98 11.07Q33.98 11.35 34.05 11.52L34.05 11.52L34.05 11.52Q34.13 11.69 34.24 11.82L34.24 11.82L34.24 11.82Q34.57 12.14 35.10 12.14L35.10 12.14L35.10 12.14Q35.27 12.14 35.42 12.10L35.42 12.10L35.42 12.10Q35.57 12.07 35.74 11.98L35.74 11.98L35.74 11.98Q35.91 11.89 36.12 11.74L36.12 11.74L36.12 11.74Q36.33 11.59 36.62 11.38L36.62 11.38ZM38.86 11.94L39.14 12.25L39.14 12.25Q38.91 12.70 38.63 12.85L38.63 12.85L38.63 12.85Q38.35 12.99 38.01 12.99L38.01 12.99L38.01 12.99Q37.42 12.99 37.09 12.71L37.09 12.71L37.09 12.71Q36.75 12.42 36.65 11.94L36.65 11.94L36.65 11.94Q36.37 12.22 36.13 12.43L36.13 12.43L36.13 12.43Q35.90 12.64 35.66 12.78L35.66 12.78L35.66 12.78Q35.42 12.92 35.17 12.99L35.17 12.99L35.17 12.99Q34.92 13.06 34.61 13.06L34.61 13.06L34.61 13.06Q34.23 13.06 33.89 12.95L33.89 12.95L33.89 12.95Q33.54 12.84 33.29 12.61L33.29 12.61L33.29 12.61Q33.03 12.39 32.88 12.06L32.88 12.06L32.88 12.06Q32.73 11.73 32.73 11.30L32.73 11.30L32.73 11.30Q32.73 11.00 32.83 10.72L32.83 10.72L32.83 10.72Q32.93 10.44 33.18 10.19L33.18 10.19L33.18 10.19Q33.43 9.93 33.89 9.67L33.89 9.67L33.89 9.67Q34.34 9.41 35.06 9.16L35.06 9.16L35.06 9.16Q35.38 9.04 35.79 8.93L35.79 8.93L35.79 8.93Q36.20 8.81 36.62 8.69L36.62 8.69L36.62 8.32L36.62 8.32Q36.62 7.81 36.55 7.48L36.55 7.48L36.55 7.48Q36.47 7.15 36.32 6.96L36.32 6.96L36.32 6.96Q36.16 6.78 35.92 6.70L35.92 6.70L35.92 6.70Q35.67 6.62 35.32 6.62L35.32 6.62L35.32 6.62Q35.17 6.62 34.99 6.64L34.99 6.64L34.99 6.64Q34.82 6.65 34.61 6.69L34.61 6.69L34.33 7.67L34.33 7.67Q34.13 8.34 33.57 8.34L33.57 8.34L33.57 8.34Q33.28 8.34 33.11 8.18L33.11 8.18L33.11 8.18Q32.94 8.02 32.91 7.74L32.91 7.74L32.91 7.74Q33.11 6.94 33.84 6.46L33.84 6.46L33.84 6.46Q34.57 5.98 35.64 5.98L35.64 5.98L35.64 5.98Q36.75 5.98 37.28 6.54L37.28 6.54L37.28 6.54Q37.81 7.10 37.81 8.44L37.81 8.44L37.81 11.44L37.81 11.44Q37.81 12.26 38.28 12.26L38.28 12.26L38.28 12.26Q38.44 12.26 38.57 12.19L38.57 12.19L38.57 12.19Q38.70 12.11 38.79 12.03L38.79 12.03L38.86 11.94ZM42.42 8.82L42.84 8.97L42.84 8.97Q43.90 9.37 44.33 9.88L44.33 9.88L44.33 9.88Q44.76 10.39 44.76 11.05L44.76 11.05L44.76 11.05Q44.76 11.44 44.59 11.80L44.59 11.80L44.59 11.80Q44.42 12.17 44.08 12.45L44.08 12.45L44.08 12.45Q43.74 12.73 43.23 12.89L43.23 12.89L43.23 12.89Q42.71 13.06 42.04 13.06L42.04 13.06L42.04 13.06Q41.44 13.06 40.96 12.93L40.96 12.93L40.96 12.93Q40.47 12.80 39.94 12.52L39.94 12.52L39.90 10.99L40.67 10.99L40.94 12.19L40.94 12.19Q41.43 12.42 42.07 12.42L42.07 12.42L42.07 12.42Q42.87 12.42 43.26 12.12L43.26 12.12L43.26 12.12Q43.65 11.83 43.65 11.34L43.65 11.34L43.65 11.34Q43.65 10.89 43.32 10.63L43.32 10.63L43.32 10.63Q42.99 10.36 42.32 10.11L42.32 10.11L41.68 9.87L41.68 9.87Q40.91 9.59 40.45 9.13L40.45 9.13L40.45 9.13Q39.98 8.68 39.98 8.01L39.98 8.01L39.98 8.01Q39.98 7.60 40.16 7.24L40.16 7.24L40.16 7.24Q40.33 6.87 40.65 6.59L40.65 6.59L40.65 6.59Q40.96 6.31 41.42 6.15L41.42 6.15L41.42 6.15Q41.87 5.98 42.43 5.98L42.43 5.98L42.43 5.98Q43.01 5.98 43.47 6.13L43.47 6.13L43.47 6.13Q43.93 6.27 44.39 6.55L44.39 6.55L44.34 7.98L43.61 7.98L43.40 6.86L43.40 6.86Q42.90 6.62 42.42 6.62L42.42 6.62L42.42 6.62Q41.78 6.62 41.45 6.90L41.45 6.90L41.45 6.90Q41.12 7.17 41.12 7.64L41.12 7.64L41.12 7.64Q41.12 8.06 41.41 8.31L41.41 8.31L41.41 8.31Q41.69 8.55 42.42 8.82L42.42 8.82ZM51.91 12.18L52.84 12.35L52.84 12.85L50.93 12.85L48.78 9.38L47.84 10.33L47.84 10.33Q47.84 10.78 47.84 11.24L47.84 11.24L47.84 11.24Q47.85 11.70 47.87 12.15L47.87 12.15L48.97 12.35L48.97 12.85L45.53 12.85L45.53 12.35L46.63 12.15L46.63 12.15Q46.65 11.59 46.65 11.03L46.65 11.03L46.65 11.03Q46.66 10.46 46.66 9.91L46.66 9.91L46.66 3.91L45.51 3.77L45.51 3.28L47.70 2.65L47.89 2.76L47.84 4.75L47.84 9.52L50.30 6.96L49.28 6.80L49.28 6.23L52.47 6.23L52.47 6.80L51.13 6.99L49.60 8.54L51.91 12.18ZM59.42 4.20L56.11 4.20L56.11 4.20Q56.08 5.08 56.08 5.96L56.08 5.96L56.08 5.96Q56.08 6.85 56.08 7.74L56.08 7.74L58.27 7.74L58.46 6.40L59.11 6.40L59.11 9.86L58.46 9.86L58.27 8.40L56.08 8.40L56.08 8.40Q56.08 9.39 56.08 10.31L56.08 10.31L56.08 10.31Q56.08 11.23 56.11 12.12L56.11 12.12L57.41 12.28L57.41 12.85L53.45 12.85L53.45 12.28L54.74 12.12L54.74 12.12Q54.77 11.24 54.77 10.34L54.77 10.34L54.77 10.34Q54.77 9.44 54.77 8.51L54.77 8.51L54.77 7.83L54.77 7.83Q54.77 6.92 54.77 6.02L54.77 6.02L54.77 6.02Q54.77 5.12 54.74 4.21L54.74 4.21L53.45 4.06L53.45 3.49L60.42 3.49L60.52 5.98L59.72 5.98L59.42 4.20ZM64.20 6.62L64.20 6.62L64.20 6.62Q63.28 6.62 62.79 7.37L62.79 7.37L62.79 7.37Q62.30 8.12 62.30 9.55L62.30 9.55L62.30 9.55Q62.30 10.96 62.79 11.70L62.79 11.70L62.79 11.70Q63.28 12.43 64.20 12.43L64.20 12.43L64.20 12.43Q65.11 12.43 65.60 11.70L65.60 11.70L65.60 11.70Q66.09 10.96 66.09 9.55L66.09 9.55L66.09 9.55Q66.09 8.12 65.60 7.37L65.60 7.37L65.60 7.37Q65.11 6.62 64.20 6.62ZM64.20 5.98L64.20 5.98L64.20 5.98Q64.81 5.98 65.39 6.21L65.39 6.21L65.39 6.21Q65.97 6.44 66.42 6.90L66.42 6.90L66.42 6.90Q66.86 7.35 67.14 8.02L67.14 8.02L67.14 8.02Q67.42 8.68 67.42 9.55L67.42 9.55L67.42 9.55Q67.42 10.42 67.15 11.07L67.15 11.07L67.15 11.07Q66.88 11.73 66.42 12.17L66.42 12.17L66.42 12.17Q65.97 12.61 65.39 12.84L65.39 12.84L65.39 12.84Q64.81 13.06 64.20 13.06L64.20 13.06L64.20 13.06Q63.59 13.06 63.01 12.84L63.01 12.84L63.01 12.84Q62.43 12.61 61.98 12.17L61.98 12.17L61.98 12.17Q61.53 11.73 61.26 11.07L61.26 11.07L61.26 11.07Q60.98 10.42 60.98 9.55L60.98 9.55L60.98 9.55Q60.98 8.68 61.26 8.02L61.26 8.02L61.26 8.02Q61.53 7.35 61.98 6.90L61.98 6.90L61.98 6.90Q62.44 6.44 63.01 6.21L63.01 6.21L63.01 6.21Q63.59 5.98 64.20 5.98ZM70.69 6.12L70.84 7.76L70.84 7.76Q71.20 6.92 71.74 6.45L71.74 6.45L71.74 6.45Q72.28 5.98 72.86 5.98L72.86 5.98L72.86 5.98Q73.16 5.98 73.45 6.14L73.45 6.14L73.45 6.14Q73.74 6.30 73.81 6.66L73.81 6.66L73.81 6.66Q73.81 7.01 73.57 7.22L73.57 7.22L73.57 7.22Q73.33 7.42 72.97 7.42L72.97 7.42L72.97 7.42Q72.53 7.42 72.17 7.07L72.17 7.07L72.07 6.97L72.07 6.97Q71.64 7.29 71.34 7.74L71.34 7.74L71.34 7.74Q71.05 8.18 70.85 8.81L70.85 8.81L70.85 9.91L70.85 9.91Q70.85 10.37 70.86 10.99L70.86 10.99L70.86 10.99Q70.87 11.61 70.88 12.14L70.88 12.14L72.03 12.35L72.03 12.85L68.64 12.85L68.64 12.35L69.65 12.17L69.65 12.17Q69.66 11.63 69.67 11.01L69.67 11.01L69.67 11.01Q69.68 10.39 69.68 9.91L69.68 9.91L69.68 9.20L69.68 9.20Q69.68 8.62 69.66 8.25L69.66 8.25L69.66 8.25Q69.65 7.87 69.64 7.45L69.64 7.45L68.53 7.32L68.53 6.83L70.48 5.98L70.69 6.12ZM79.87 11.07L80.22 11.26L80.22 11.26Q79.94 12.14 79.27 12.60L79.27 12.60L79.27 12.60Q78.61 13.06 77.60 13.06L77.60 13.06L77.60 13.06Q76.89 13.06 76.31 12.82L76.31 12.82L76.31 12.82Q75.73 12.57 75.31 12.11L75.31 12.11L75.31 12.11Q74.90 11.65 74.68 11.00L74.68 11.00L74.68 11.00Q74.47 10.35 74.47 9.55L74.47 9.55L74.47 9.55Q74.47 8.72 74.73 8.06L74.73 8.06L74.73 8.06Q75.00 7.39 75.45 6.93L75.45 6.93L75.45 6.93Q75.91 6.47 76.49 6.22L76.49 6.22L76.49 6.22Q77.07 5.98 77.70 5.98L77.70 5.98L77.70 5.98Q78.18 5.98 78.60 6.12L78.60 6.12L78.60 6.12Q79.03 6.26 79.36 6.50L79.36 6.50L79.36 6.50Q79.69 6.75 79.90 7.08L79.90 7.08L79.90 7.08Q80.11 7.41 80.18 7.80L80.18 7.80L80.18 7.80Q80.08 8.33 79.53 8.33L79.53 8.33L79.53 8.33Q79.18 8.33 79.02 8.14L79.02 8.14L79.02 8.14Q78.85 7.95 78.78 7.66L78.78 7.66L78.53 6.73L78.53 6.73Q78.33 6.66 78.13 6.64L78.13 6.64L78.13 6.64Q77.94 6.62 77.77 6.62L77.77 6.62L77.77 6.62Q76.86 6.62 76.28 7.34L76.28 7.34L76.28 7.34Q75.70 8.05 75.70 9.41L75.70 9.41L75.70 9.41Q75.70 10.75 76.32 11.46L76.32 11.46L76.32 11.46Q76.94 12.17 77.94 12.17L77.94 12.17L77.94 12.17Q78.54 12.17 79.04 11.89L79.04 11.89L79.04 11.89Q79.55 11.61 79.87 11.07L79.87 11.07ZM82.59 8.86L85.13 8.86L85.13 8.86Q85.64 8.86 85.81 8.65L85.81 8.65L85.81 8.65Q85.97 8.44 85.97 8.13L85.97 8.13L85.97 8.13Q85.97 7.84 85.85 7.57L85.85 7.57L85.85 7.57Q85.74 7.29 85.53 7.08L85.53 7.08L85.53 7.08Q85.33 6.87 85.06 6.75L85.06 6.75L85.06 6.75Q84.78 6.62 84.46 6.62L84.46 6.62L84.46 6.62Q84.17 6.62 83.85 6.74L83.85 6.74L83.85 6.74Q83.54 6.86 83.28 7.13L83.28 7.13L83.28 7.13Q83.02 7.41 82.83 7.83L82.83 7.83L82.83 7.83Q82.64 8.26 82.59 8.86L82.59 8.86ZM87.04 9.46L82.56 9.46L82.56 9.46Q82.59 10.77 83.20 11.47L83.20 11.47L83.20 11.47Q83.82 12.17 84.83 12.17L84.83 12.17L84.83 12.17Q85.50 12.17 85.95 11.89L85.95 11.89L85.95 11.89Q86.39 11.61 86.77 11.16L86.77 11.16L87.11 11.42L87.11 11.42Q86.74 12.18 86.06 12.62L86.06 12.62L86.06 12.62Q85.39 13.06 84.42 13.06L84.42 13.06L84.42 13.06Q83.71 13.06 83.13 12.82L83.13 12.82L83.13 12.82Q82.56 12.59 82.15 12.13L82.15 12.13L82.15 12.13Q81.75 11.68 81.52 11.03L81.52 11.03L81.52 11.03Q81.30 10.39 81.30 9.59L81.30 9.59L81.30 9.59Q81.30 8.79 81.55 8.13L81.55 8.13L81.55 8.13Q81.80 7.46 82.24 6.99L82.24 6.99L82.24 6.99Q82.68 6.51 83.27 6.24L83.27 6.24L83.27 6.24Q83.86 5.98 84.52 5.98L84.52 5.98L84.52 5.98Q85.06 5.98 85.55 6.16L85.55 6.16L85.55 6.16Q86.03 6.34 86.38 6.69L86.38 6.69L86.38 6.69Q86.73 7.04 86.93 7.55L86.93 7.55L86.93 7.55Q87.14 8.05 87.14 8.68L87.14 8.68L87.14 8.68Q87.14 8.92 87.11 9.11L87.11 9.11L87.11 9.11Q87.08 9.31 87.04 9.46L87.04 9.46Z"></path></g> <linearGradient data-v-1084b650="" gradientTransform="rotate(25)" id="bb27fe97-2164-32d8-0a23-8b6285b5c960" x1="0%" y1="0%" x2="100%" y2="0%"><stop data-v-1084b650="" offset="0%" style="stop-color: rgb(5, 9, 34); stop-opacity: 1;"></stop> <stop data-v-1084b650="" offset="100%" style="stop-color: rgb(110, 230, 199); stop-opacity: 1;"></stop></linearGradient> <g data-v-1084b650="" id="5d5697e5-2cd4-4a7a-d272-45959ab3af73" fill="url(#bb27fe97-2164-32d8-0a23-8b6285b5c960)" stroke="none" transform="matrix(0.2207955904761145,0,0,0.2207955904761145,116.88067257519131,97.94030877917461)"><svg xmlns="http://www.w3.org/2000/svg" xmlns:xlink="http://www.w3.org/1999/xlink" version="1.1" x="0px" y="0px" viewBox="0 0 100 100" enable-background="new 0 0 100 100" xml:space="preserve"><path d="M95.591,90.408c0.015-0.046,0.018-0.092,0.023-0.14c0.005-0.033,0.021-0.063,0.021-0.099l0.217-80.105  c0-0.037-0.016-0.068-0.021-0.103c-0.007-0.047-0.008-0.093-0.023-0.138c-0.004-0.013-0.007-0.025-0.012-0.037  c-0.017-0.043-0.046-0.077-0.071-0.116c-0.018-0.029-0.025-0.062-0.048-0.089c-0.004-0.004-0.01-0.006-0.014-0.011  c-0.007-0.009-0.014-0.017-0.021-0.025c-0.033-0.034-0.075-0.056-0.113-0.083c-0.033-0.023-0.062-0.054-0.098-0.071  c-0.008-0.003-0.016-0.007-0.023-0.01c-0.035-0.016-0.075-0.019-0.112-0.029c-0.05-0.013-0.097-0.032-0.147-0.035  c-0.006,0-0.01-0.003-0.016-0.004L14.05,5.999c-0.005,0-0.01,0.002-0.016,0.002s-0.01-0.003-0.015-0.003c-0.002,0-0.004,0-0.006,0  c-0.03,0-0.055,0.014-0.084,0.018c-0.045,0.005-0.089,0.011-0.133,0.024c-0.021,0.006-0.042,0.008-0.062,0.017  c-0.033,0.014-0.059,0.037-0.09,0.055c-0.025,0.015-0.053,0.019-0.077,0.037c-0.014,0.011-0.021,0.026-0.033,0.038  c-0.013,0.011-0.029,0.015-0.041,0.026l-9.121,8.937c-0.002,0.002-0.002,0.004-0.004,0.006c-0.01,0.01-0.016,0.022-0.025,0.032  c-0.007,0.008-0.017,0.011-0.024,0.02c-0.022,0.027-0.03,0.061-0.048,0.09c-0.011,0.017-0.024,0.032-0.033,0.05  c-0.009,0.018-0.026,0.032-0.033,0.051c-0.005,0.012-0.004,0.026-0.008,0.039c-0.016,0.045-0.021,0.091-0.028,0.138  c-0.006,0.037-0.02,0.073-0.02,0.111c0,0.002-0.001,0.004-0.001,0.007l0.622,69.237c0,0.005,0.003,0.01,0.003,0.015  c0.001,0.035,0.014,0.068,0.02,0.104c0.008,0.045,0.014,0.088,0.03,0.131c0.006,0.017,0.007,0.033,0.014,0.049  c0.015,0.033,0.042,0.061,0.062,0.092c0.017,0.027,0.024,0.059,0.045,0.084c0.007,0.009,0.018,0.012,0.025,0.02  c0.013,0.014,0.022,0.029,0.036,0.042c0.004,0.004,0.006,0.01,0.01,0.014l9.173,8.33c0.01,0.009,0.023,0.012,0.033,0.021  c0.008,0.007,0.012,0.017,0.021,0.023c0.032,0.023,0.068,0.035,0.102,0.054c0.024,0.013,0.043,0.03,0.069,0.04  c0.009,0.004,0.018,0.006,0.027,0.01c0.082,0.029,0.167,0.047,0.252,0.047c0,0,0,0,0,0l0,0c0.002,0,0.004,0,0.006,0  c0,0,0.001,0,0.001,0c0.007,0,0.015,0,0.022-0.001l80.192-3.084c0.043-0.002,0.08-0.021,0.12-0.029  c0.052-0.011,0.105-0.015,0.153-0.036c0.004-0.002,0.009-0.002,0.014-0.004c0.038-0.018,0.065-0.049,0.1-0.072  c0.042-0.029,0.087-0.053,0.123-0.09c0.008-0.008,0.015-0.018,0.022-0.026c0.005-0.005,0.012-0.007,0.017-0.013  c0.022-0.027,0.03-0.061,0.049-0.091c0.022-0.036,0.051-0.069,0.066-0.11C95.583,90.434,95.586,90.421,95.591,90.408z   M34.337,65.118l-4.028-0.892l-0.161-27.683l4.039-1.019 M29.58,35.141L14.896,22.987L14.787,9.018l18.867,25.095L29.58,35.141z   M28.646,36.315l0.164,28.167L15.307,75.766l-0.396-50.82L28.646,36.315z M33.793,66.535L15.426,91.024l-0.104-13.316L29.76,65.643   M35.838,65.294l-0.152-29.969l28.78,0.451l0.033,29.122L35.838,65.294z M66,65.285l-0.035-29.897l4.545-3.797l0.015,37.439  L66,65.285z M72.025,70.272l-0.017-39.935L94.348,11.67l-0.209,76.906L72.025,70.272z M64.948,34.284l-29.638-0.464L15.57,7.562  l77.56,3.17L64.948,34.284z M13.386,21.737l-7.369-6.099l7.266-7.118L13.386,21.737z M13.401,23.696l0.416,53.315L6.256,83.33  l-0.593-66.04L13.401,23.696z M13.832,78.953l0.098,12.593l-7.268-6.601L13.832,78.953z M64.983,66.393l27.91,23.102l-76.655,2.948  l19.232-25.644"></path></svg></g></svg>