<svg data-v-1084b650="" xmlns="http://www.w3.org/2000/svg" viewBox="0 0 300 300"><!----> <!----> <rect data-v-1084b650="" fill="#EBF2F2" x="0" y="0" width="300px" height="300px" class="logo-background-square"></rect> <!----> <linearGradient data-v-1084b650="" gradientTransform="rotate(25)" id="f186fa1f-5fee-7792-bddd-a09804c01ff3" x1="0%" y1="0%" x2="100%" y2="0%"><stop data-v-1084b650="" offset="0%" style="stop-color: rgb(5, 9, 34); stop-opacity: 1;"></stop> <stop data-v-1084b650="" offset="100%" style="stop-color: rgb(110, 230, 199); stop-opacity: 1;"></stop></linearGradient> <g data-v-1084b650="" id="79d30f24-a0a9-cff0-ac2a-d354760db46f" fill="url(#f186fa1f-5fee-7792-bddd-a09804c01ff3)" stroke="none" transform="matrix(0.7499999999999998,0,0,0.7499999999999998,37.49998927116397,37.494372367858915)"><svg xmlns="http://www.w3.org/2000/svg" xmlns:xlink="http://www.w3.org/1999/xlink" version="1.1" x="0px" y="0px" viewBox="0 0 100 100" enable-background="new 0 0 100 100" xml:space="preserve"><path d="M95.591,90.408c0.015-0.046,0.018-0.092,0.023-0.14c0.005-0.033,0.021-0.063,0.021-0.099l0.217-80.105  c0-0.037-0.016-0.068-0.021-0.103c-0.007-0.047-0.008-0.093-0.023-0.138c-0.004-0.013-0.007-0.025-0.012-0.037  c-0.017-0.043-0.046-0.077-0.071-0.116c-0.018-0.029-0.025-0.062-0.048-0.089c-0.004-0.004-0.01-0.006-0.014-0.011  c-0.007-0.009-0.014-0.017-0.021-0.025c-0.033-0.034-0.075-0.056-0.113-0.083c-0.033-0.023-0.062-0.054-0.098-0.071  c-0.008-0.003-0.016-0.007-0.023-0.01c-0.035-0.016-0.075-0.019-0.112-0.029c-0.05-0.013-0.097-0.032-0.147-0.035  c-0.006,0-0.01-0.003-0.016-0.004L14.05,5.999c-0.005,0-0.01,0.002-0.016,0.002s-0.01-0.003-0.015-0.003c-0.002,0-0.004,0-0.006,0  c-0.03,0-0.055,0.014-0.084,0.018c-0.045,0.005-0.089,0.011-0.133,0.024c-0.021,0.006-0.042,0.008-0.062,0.017  c-0.033,0.014-0.059,0.037-0.09,0.055c-0.025,0.015-0.053,0.019-0.077,0.037c-0.014,0.011-0.021,0.026-0.033,0.038  c-0.013,0.011-0.029,0.015-0.041,0.026l-9.121,8.937c-0.002,0.002-0.002,0.004-0.004,0.006c-0.01,0.01-0.016,0.022-0.025,0.032  c-0.007,0.008-0.017,0.011-0.024,0.02c-0.022,0.027-0.03,0.061-0.048,0.09c-0.011,0.017-0.024,0.032-0.033,0.05  c-0.009,0.018-0.026,0.032-0.033,0.051c-0.005,0.012-0.004,0.026-0.008,0.039c-0.016,0.045-0.021,0.091-0.028,0.138  c-0.006,0.037-0.02,0.073-0.02,0.111c0,0.002-0.001,0.004-0.001,0.007l0.622,69.237c0,0.005,0.003,0.01,0.003,0.015  c0.001,0.035,0.014,0.068,0.02,0.104c0.008,0.045,0.014,0.088,0.03,0.131c0.006,0.017,0.007,0.033,0.014,0.049  c0.015,0.033,0.042,0.061,0.062,0.092c0.017,0.027,0.024,0.059,0.045,0.084c0.007,0.009,0.018,0.012,0.025,0.02  c0.013,0.014,0.022,0.029,0.036,0.042c0.004,0.004,0.006,0.01,0.01,0.014l9.173,8.33c0.01,0.009,0.023,0.012,0.033,0.021  c0.008,0.007,0.012,0.017,0.021,0.023c0.032,0.023,0.068,0.035,0.102,0.054c0.024,0.013,0.043,0.03,0.069,0.04  c0.009,0.004,0.018,0.006,0.027,0.01c0.082,0.029,0.167,0.047,0.252,0.047c0,0,0,0,0,0l0,0c0.002,0,0.004,0,0.006,0  c0,0,0.001,0,0.001,0c0.007,0,0.015,0,0.022-0.001l80.192-3.084c0.043-0.002,0.08-0.021,0.12-0.029  c0.052-0.011,0.105-0.015,0.153-0.036c0.004-0.002,0.009-0.002,0.014-0.004c0.038-0.018,0.065-0.049,0.1-0.072  c0.042-0.029,0.087-0.053,0.123-0.09c0.008-0.008,0.015-0.018,0.022-0.026c0.005-0.005,0.012-0.007,0.017-0.013  c0.022-0.027,0.03-0.061,0.049-0.091c0.022-0.036,0.051-0.069,0.066-0.11C95.583,90.434,95.586,90.421,95.591,90.408z   M34.337,65.118l-4.028-0.892l-0.161-27.683l4.039-1.019 M29.58,35.141L14.896,22.987L14.787,9.018l18.867,25.095L29.58,35.141z   M28.646,36.315l0.164,28.167L15.307,75.766l-0.396-50.82L28.646,36.315z M33.793,66.535L15.426,91.024l-0.104-13.316L29.76,65.643   M35.838,65.294l-0.152-29.969l28.78,0.451l0.033,29.122L35.838,65.294z M66,65.285l-0.035-29.897l4.545-3.797l0.015,37.439  L66,65.285z M72.025,70.272l-0.017-39.935L94.348,11.67l-0.209,76.906L72.025,70.272z M64.948,34.284l-29.638-0.464L15.57,7.562  l77.56,3.17L64.948,34.284z M13.386,21.737l-7.369-6.099l7.266-7.118L13.386,21.737z M13.401,23.696l0.416,53.315L6.256,83.33  l-0.593-66.04L13.401,23.696z M13.832,78.953l0.098,12.593l-7.268-6.601L13.832,78.953z M64.983,66.393l27.91,23.102l-76.655,2.948  l19.232-25.644"></path></svg></g></svg>